<?xml version="1.0" standalone="no"?>
<!DOCTYPE svg PUBLIC "-//W3C//DTD SVG 20010904//EN"
 "http://www.w3.org/TR/2001/REC-SVG-20010904/DTD/svg10.dtd">
<svg version="1.0" xmlns="http://www.w3.org/2000/svg"
 width="667.000000pt" height="655.000000pt" viewBox="0 0 667.000000 655.000000"
 preserveAspectRatio="xMidYMid meet">

<g transform="translate(0.000000,655.000000) scale(0.100000,-0.100000)"
fill="#000000" stroke="none">
<path d="M910 6529 c-131 -7 -159 -12 -252 -44 -211 -75 -373 -200 -495 -380
-55 -81 -77 -126 -107 -221 -54 -167 -56 -222 -56 -1366 0 -578 2 -1049 4
-1047 2 2 12 69 21 149 113 993 656 1856 1515 2407 395 253 871 428 1323 486
59 8 109 16 111 18 7 6 -1938 5 -2064 -2z"/>
<path d="M3696 6529 c2 -3 38 -9 80 -12 197 -17 543 -107 799 -208 512 -204
1002 -566 1356 -1004 90 -112 245 -341 311 -460 141 -254 267 -575 323 -820
23 -102 65 -323 66 -354 1 -14 5 -1 10 29 12 82 3 1981 -11 2062 -46 292 -268
568 -558 693 -105 46 -178 64 -286 71 -124 7 -2095 11 -2090 3z"/>
<path d="M3100 6459 c-702 -53 -1349 -319 -1894 -778 -383 -322 -711 -779
-898 -1249 -341 -861 -289 -1822 144 -2652 207 -397 541 -786 923 -1076 86
-65 279 -194 290 -194 4 0 19 -9 34 -19 58 -42 342 -176 476 -226 249 -92 457
-144 750 -187 123 -18 687 -18 810 0 397 58 682 142 995 293 370 179 649 377
927 661 498 507 799 1123 894 1833 44 329 27 717 -46 1064 -171 807 -679 1541
-1388 2005 -593 389 -1320 578 -2017 525z m443 -1365 c3 -3 -8 -43 -24 -88
-17 -44 -54 -148 -84 -231 -76 -216 -233 -633 -255 -680 -10 -22 -48 -110 -84
-195 -148 -354 -296 -661 -541 -1125 -88 -165 -189 -358 -226 -430 -194 -378
-234 -455 -269 -510 -20 -33 -53 -95 -73 -137 -20 -43 -46 -82 -56 -88 -31
-16 -921 -14 -921 3 0 6 8 26 18 42 10 17 69 129 132 250 62 121 136 265 165
320 29 55 118 229 199 387 81 158 205 401 277 540 71 139 314 622 539 1073
225 451 416 832 424 848 l15 27 379 0 c208 0 381 -3 385 -6z m92 -137 c32 -50
98 -160 147 -244 48 -84 98 -169 112 -190 13 -21 66 -110 117 -198 51 -88 114
-196 139 -240 26 -44 79 -134 118 -200 38 -66 145 -248 238 -405 92 -157 205
-352 252 -435 143 -253 174 -308 200 -355 14 -24 48 -83 77 -130 28 -47 118
-200 200 -340 81 -140 174 -298 205 -350 59 -99 110 -203 110 -225 0 -8 -7
-21 -16 -29 -14 -14 -69 -16 -453 -16 l-438 0 -95 158 c-53 86 -139 234 -193
327 -54 94 -124 213 -156 265 -31 52 -138 237 -236 410 -99 173 -249 434 -333
580 -273 473 -302 524 -352 620 l-49 96 17 39 c9 22 24 58 34 80 34 77 100
265 100 286 0 12 6 35 13 52 21 48 37 101 37 120 0 9 5 17 10 17 6 0 10 8 10
18 0 9 23 71 51 137 30 72 49 129 46 143 -5 25 11 102 22 102 3 0 33 -42 66
-93z m276 -2244 c19 -27 46 -66 59 -88 13 -22 44 -66 68 -98 24 -31 42 -63 39
-70 -2 -6 4 -23 14 -36 11 -13 19 -27 19 -31 0 -12 -48 -28 -180 -59 -275 -65
-629 -172 -1004 -305 -250 -89 -303 -110 -541 -211 -131 -57 -305 -125 -316
-125 -5 0 5 26 21 58 15 31 39 84 51 117 13 33 44 89 70 125 48 67 81 127 94
170 13 44 49 114 73 140 12 14 22 27 22 31 0 11 105 57 250 109 258 92 753
231 1115 313 11 3 40 5 65 6 43 1 48 -1 81 -46z"/>
<path d="M4 1965 c2 -1164 2 -1155 53 -1320 93 -300 347 -539 658 -620 l96
-25 1042 2 1042 3 -110 18 c-284 48 -551 127 -810 242 -77 34 -158 72 -180 85
-338 187 -557 345 -796 572 -225 215 -466 540 -631 855 -168 318 -300 748
-338 1103 -6 58 -15 121 -20 140 -4 19 -7 -452 -6 -1055z"/>
<path d="M6627 2838 c-7 -81 -64 -352 -98 -473 -79 -273 -234 -611 -394 -860
-400 -619 -1016 -1103 -1705 -1340 -172 -59 -374 -112 -538 -139 l-137 -24
1071 -1 1070 -1 70 24 c104 36 158 61 233 109 166 108 275 231 357 401 49 102
69 172 84 290 12 93 13 1989 1 2051 -6 37 -7 34 -14 -37z"/>
</g>
</svg>
